<mxfile host="app.diagrams.net" agent="Mozilla/5.0 (Windows NT 10.0; Win64; x64) AppleWebKit/537.36 (KHTML, like Gecko) Chrome/129.0.0.0 Safari/537.36" version="24.7.17">
  <diagram name="日志清洗" id="oZNZnExkW9Gg9ZYMqKRW">
    <mxGraphModel dx="1434" dy="1915" grid="1" gridSize="10" guides="1" tooltips="1" connect="1" arrows="1" fold="1" page="1" pageScale="1" pageWidth="827" pageHeight="1169" math="0" shadow="0">
      <root>
        <mxCell id="0" />
        <mxCell id="1" parent="0" />
        <mxCell id="zUACO3PlM1Be-oEqYf2M-1" style="edgeStyle=orthogonalEdgeStyle;rounded=0;orthogonalLoop=1;jettySize=auto;html=1;entryX=0;entryY=0.5;entryDx=0;entryDy=0;entryPerimeter=0;" edge="1" parent="1" source="zUACO3PlM1Be-oEqYf2M-2" target="zUACO3PlM1Be-oEqYf2M-4">
          <mxGeometry relative="1" as="geometry">
            <mxPoint x="375" y="-855" as="targetPoint" />
          </mxGeometry>
        </mxCell>
        <mxCell id="zUACO3PlM1Be-oEqYf2M-2" value="adapter" style="rounded=0;whiteSpace=wrap;html=1;" vertex="1" parent="1">
          <mxGeometry x="55" y="-870" width="130" height="30" as="geometry" />
        </mxCell>
        <mxCell id="zUACO3PlM1Be-oEqYf2M-3" value="发送日志记录" style="text;html=1;align=center;verticalAlign=middle;resizable=0;points=[];autosize=1;strokeColor=none;fillColor=none;" vertex="1" parent="1">
          <mxGeometry x="225" y="-892" width="100" height="30" as="geometry" />
        </mxCell>
        <mxCell id="zUACO3PlM1Be-oEqYf2M-4" value="" style="sketch=0;aspect=fixed;pointerEvents=1;shadow=0;dashed=0;html=1;strokeColor=none;labelPosition=center;verticalLabelPosition=bottom;verticalAlign=top;align=center;fillColor=#00188D;shape=mxgraph.azure.queue_generic" vertex="1" parent="1">
          <mxGeometry x="345" y="-866" width="73.33" height="22" as="geometry" />
        </mxCell>
        <mxCell id="zUACO3PlM1Be-oEqYf2M-5" style="edgeStyle=orthogonalEdgeStyle;rounded=0;orthogonalLoop=1;jettySize=auto;html=1;entryX=0.446;entryY=0;entryDx=0;entryDy=0;entryPerimeter=0;" edge="1" parent="1" source="zUACO3PlM1Be-oEqYf2M-6" target="zUACO3PlM1Be-oEqYf2M-10">
          <mxGeometry relative="1" as="geometry">
            <mxPoint x="583" y="-730" as="targetPoint" />
          </mxGeometry>
        </mxCell>
        <mxCell id="zUACO3PlM1Be-oEqYf2M-6" value="flink" style="rounded=0;whiteSpace=wrap;html=1;" vertex="1" parent="1">
          <mxGeometry x="515" y="-870" width="130" height="30" as="geometry" />
        </mxCell>
        <mxCell id="zUACO3PlM1Be-oEqYf2M-7" style="edgeStyle=orthogonalEdgeStyle;rounded=0;orthogonalLoop=1;jettySize=auto;html=1;entryX=1;entryY=0.51;entryDx=0;entryDy=0;entryPerimeter=0;" edge="1" parent="1" source="zUACO3PlM1Be-oEqYf2M-6" target="zUACO3PlM1Be-oEqYf2M-4">
          <mxGeometry relative="1" as="geometry" />
        </mxCell>
        <mxCell id="zUACO3PlM1Be-oEqYf2M-8" value="&amp;nbsp;根据 规则解析" style="text;html=1;align=center;verticalAlign=middle;resizable=0;points=[];autosize=1;strokeColor=none;fillColor=none;" vertex="1" parent="1">
          <mxGeometry x="575" y="-822" width="100" height="30" as="geometry" />
        </mxCell>
        <mxCell id="zUACO3PlM1Be-oEqYf2M-9" style="edgeStyle=orthogonalEdgeStyle;rounded=0;orthogonalLoop=1;jettySize=auto;html=1;entryX=0.5;entryY=0;entryDx=0;entryDy=0;" edge="1" parent="1" source="zUACO3PlM1Be-oEqYf2M-10" target="zUACO3PlM1Be-oEqYf2M-12">
          <mxGeometry relative="1" as="geometry" />
        </mxCell>
        <mxCell id="zUACO3PlM1Be-oEqYf2M-10" value="tenantId&amp;nbsp; traceId&amp;nbsp; lable data ..." style="rounded=0;whiteSpace=wrap;html=1;" vertex="1" parent="1">
          <mxGeometry x="505" y="-710" width="180" height="30" as="geometry" />
        </mxCell>
        <mxCell id="zUACO3PlM1Be-oEqYf2M-11" style="edgeStyle=orthogonalEdgeStyle;rounded=0;orthogonalLoop=1;jettySize=auto;html=1;entryX=0.5;entryY=0;entryDx=0;entryDy=0;" edge="1" parent="1" source="zUACO3PlM1Be-oEqYf2M-12" target="zUACO3PlM1Be-oEqYf2M-15">
          <mxGeometry relative="1" as="geometry" />
        </mxCell>
        <mxCell id="zUACO3PlM1Be-oEqYf2M-12" value="继续解析，识别出label" style="rounded=0;whiteSpace=wrap;html=1;" vertex="1" parent="1">
          <mxGeometry x="505" y="-640" width="180" height="30" as="geometry" />
        </mxCell>
        <mxCell id="zUACO3PlM1Be-oEqYf2M-13" value="聚合" style="text;html=1;align=center;verticalAlign=middle;resizable=0;points=[];autosize=1;strokeColor=none;fillColor=none;" vertex="1" parent="1">
          <mxGeometry x="414" y="-530" width="50" height="30" as="geometry" />
        </mxCell>
        <mxCell id="zUACO3PlM1Be-oEqYf2M-14" style="edgeStyle=orthogonalEdgeStyle;rounded=0;orthogonalLoop=1;jettySize=auto;html=1;" edge="1" parent="1" source="zUACO3PlM1Be-oEqYf2M-15">
          <mxGeometry relative="1" as="geometry">
            <mxPoint x="505" y="-440" as="targetPoint" />
          </mxGeometry>
        </mxCell>
        <mxCell id="zUACO3PlM1Be-oEqYf2M-15" value="key&amp;nbsp; by&amp;nbsp; traceId" style="rounded=0;whiteSpace=wrap;html=1;" vertex="1" parent="1">
          <mxGeometry x="505" y="-530" width="180" height="30" as="geometry" />
        </mxCell>
        <mxCell id="zUACO3PlM1Be-oEqYf2M-16" value="messageDTO" style="text;html=1;align=center;verticalAlign=middle;resizable=0;points=[];autosize=1;strokeColor=none;fillColor=none;" vertex="1" parent="1">
          <mxGeometry x="435" y="-782" width="100" height="30" as="geometry" />
        </mxCell>
        <mxCell id="zUACO3PlM1Be-oEqYf2M-17" value="order：id" style="text;html=1;align=center;verticalAlign=middle;resizable=0;points=[];autosize=1;strokeColor=none;fillColor=none;" vertex="1" parent="1">
          <mxGeometry x="50" y="-700" width="70" height="30" as="geometry" />
        </mxCell>
        <mxCell id="zUACO3PlM1Be-oEqYf2M-18" value="user：id" style="text;html=1;align=center;verticalAlign=middle;resizable=0;points=[];autosize=1;strokeColor=none;fillColor=none;" vertex="1" parent="1">
          <mxGeometry x="50" y="-660" width="70" height="30" as="geometry" />
        </mxCell>
        <mxCell id="zUACO3PlM1Be-oEqYf2M-19" style="edgeStyle=orthogonalEdgeStyle;rounded=0;orthogonalLoop=1;jettySize=auto;html=1;entryX=0.57;entryY=1.067;entryDx=0;entryDy=0;entryPerimeter=0;" edge="1" parent="1" source="zUACO3PlM1Be-oEqYf2M-20" target="zUACO3PlM1Be-oEqYf2M-31">
          <mxGeometry relative="1" as="geometry">
            <mxPoint x="195" y="-260" as="targetPoint" />
          </mxGeometry>
        </mxCell>
        <mxCell id="zUACO3PlM1Be-oEqYf2M-20" value="{&lt;div&gt;&lt;br&gt;&lt;/div&gt;&lt;div&gt;&amp;nbsp; &amp;nbsp;tenant：message.tenantId&lt;/div&gt;&lt;div&gt;&lt;br&gt;&lt;/div&gt;&lt;div&gt;}&lt;/div&gt;" style="text;html=1;align=center;verticalAlign=middle;resizable=0;points=[];autosize=1;strokeColor=none;fillColor=none;" vertex="1" parent="1">
          <mxGeometry x="65" y="-460" width="170" height="90" as="geometry" />
        </mxCell>
        <mxCell id="zUACO3PlM1Be-oEqYf2M-21" style="edgeStyle=orthogonalEdgeStyle;rounded=0;orthogonalLoop=1;jettySize=auto;html=1;entryX=0;entryY=0.5;entryDx=0;entryDy=0;" edge="1" parent="1" source="zUACO3PlM1Be-oEqYf2M-23" target="zUACO3PlM1Be-oEqYf2M-10">
          <mxGeometry relative="1" as="geometry">
            <mxPoint x="495" y="-697" as="targetPoint" />
          </mxGeometry>
        </mxCell>
        <mxCell id="zUACO3PlM1Be-oEqYf2M-22" style="edgeStyle=orthogonalEdgeStyle;rounded=0;orthogonalLoop=1;jettySize=auto;html=1;" edge="1" parent="1" source="zUACO3PlM1Be-oEqYf2M-23" target="zUACO3PlM1Be-oEqYf2M-16">
          <mxGeometry relative="1" as="geometry">
            <Array as="points">
              <mxPoint x="385" y="-720" />
              <mxPoint x="475" y="-720" />
            </Array>
          </mxGeometry>
        </mxCell>
        <mxCell id="zUACO3PlM1Be-oEqYf2M-23" value="rule" style="text;html=1;align=center;verticalAlign=middle;resizable=0;points=[];autosize=1;strokeColor=#6c8ebf;fillColor=#dae8fc;" vertex="1" parent="1">
          <mxGeometry x="361.66" y="-690" width="40" height="30" as="geometry" />
        </mxCell>
        <mxCell id="zUACO3PlM1Be-oEqYf2M-24" style="edgeStyle=orthogonalEdgeStyle;rounded=0;orthogonalLoop=1;jettySize=auto;html=1;" edge="1" parent="1" source="zUACO3PlM1Be-oEqYf2M-25" target="zUACO3PlM1Be-oEqYf2M-26">
          <mxGeometry relative="1" as="geometry" />
        </mxCell>
        <mxCell id="zUACO3PlM1Be-oEqYf2M-25" value="data :base64" style="text;html=1;align=center;verticalAlign=middle;resizable=0;points=[];autosize=1;strokeColor=#666666;fillColor=#f5f5f5;fontColor=#333333;" vertex="1" parent="1">
          <mxGeometry x="215" y="-782" width="90" height="30" as="geometry" />
        </mxCell>
        <mxCell id="zUACO3PlM1Be-oEqYf2M-26" value="解析base64" style="text;html=1;align=center;verticalAlign=middle;resizable=0;points=[];autosize=1;strokeColor=none;fillColor=none;" vertex="1" parent="1">
          <mxGeometry x="328.33" y="-782" width="90" height="30" as="geometry" />
        </mxCell>
        <mxCell id="zUACO3PlM1Be-oEqYf2M-27" value="msgType" style="text;html=1;align=center;verticalAlign=middle;resizable=0;points=[];autosize=1;strokeColor=none;fillColor=none;" vertex="1" parent="1">
          <mxGeometry x="280" y="-730" width="70" height="30" as="geometry" />
        </mxCell>
        <mxCell id="zUACO3PlM1Be-oEqYf2M-28" value="等待5s" style="text;html=1;align=center;verticalAlign=middle;resizable=0;points=[];autosize=1;strokeColor=none;fillColor=none;" vertex="1" parent="1">
          <mxGeometry x="700" y="-870" width="60" height="30" as="geometry" />
        </mxCell>
        <mxCell id="zUACO3PlM1Be-oEqYf2M-29" value="继续解析，识别出label" style="rounded=0;whiteSpace=wrap;html=1;" vertex="1" parent="1">
          <mxGeometry x="414" y="-430" width="180" height="30" as="geometry" />
        </mxCell>
        <mxCell id="zUACO3PlM1Be-oEqYf2M-30" style="edgeStyle=orthogonalEdgeStyle;rounded=0;orthogonalLoop=1;jettySize=auto;html=1;entryX=1.029;entryY=0.544;entryDx=0;entryDy=0;entryPerimeter=0;" edge="1" parent="1" source="zUACO3PlM1Be-oEqYf2M-29" target="zUACO3PlM1Be-oEqYf2M-20">
          <mxGeometry relative="1" as="geometry" />
        </mxCell>
        <mxCell id="zUACO3PlM1Be-oEqYf2M-31" value="确定要不要发" style="text;html=1;align=center;verticalAlign=middle;resizable=0;points=[];autosize=1;strokeColor=none;fillColor=none;" vertex="1" parent="1">
          <mxGeometry x="70" y="-540" width="100" height="30" as="geometry" />
        </mxCell>
        <mxCell id="zUACO3PlM1Be-oEqYf2M-32" value="member" style="rounded=0;whiteSpace=wrap;html=1;" vertex="1" parent="1">
          <mxGeometry x="65" y="-1090" width="130" height="30" as="geometry" />
        </mxCell>
        <mxCell id="zUACO3PlM1Be-oEqYf2M-33" style="edgeStyle=orthogonalEdgeStyle;rounded=0;orthogonalLoop=1;jettySize=auto;html=1;entryX=0.5;entryY=0;entryDx=0;entryDy=0;" edge="1" parent="1" source="zUACO3PlM1Be-oEqYf2M-34" target="zUACO3PlM1Be-oEqYf2M-2">
          <mxGeometry relative="1" as="geometry" />
        </mxCell>
        <mxCell id="zUACO3PlM1Be-oEqYf2M-34" value="booking" style="rounded=0;whiteSpace=wrap;html=1;" vertex="1" parent="1">
          <mxGeometry x="55" y="-980" width="130" height="30" as="geometry" />
        </mxCell>
        <mxCell id="zUACO3PlM1Be-oEqYf2M-35" style="edgeStyle=orthogonalEdgeStyle;rounded=0;orthogonalLoop=1;jettySize=auto;html=1;entryX=0.577;entryY=-0.033;entryDx=0;entryDy=0;entryPerimeter=0;" edge="1" parent="1" source="zUACO3PlM1Be-oEqYf2M-32" target="zUACO3PlM1Be-oEqYf2M-34">
          <mxGeometry relative="1" as="geometry" />
        </mxCell>
      </root>
    </mxGraphModel>
  </diagram>
</mxfile>
